<?xml version="1.0" standalone="no"?>
<!DOCTYPE svg PUBLIC "-//W3C//DTD SVG 20010904//EN"
 "http://www.w3.org/TR/2001/REC-SVG-20010904/DTD/svg10.dtd">
<svg version="1.0" xmlns="http://www.w3.org/2000/svg"
 width="900.000000pt" height="900.000000pt" viewBox="0 0 900.000000 900.000000"
 preserveAspectRatio="xMidYMid meet">
<metadata>
Created by potrace 1.10, written by Peter Selinger 2001-2011
</metadata>
<g transform="translate(0.000000,900.000000) scale(0.100000,-0.100000)"
fill="#edbe4c" stroke="none">
<path d="M4145 8855 c-236 -48 -282 -61 -560 -162 -52 -18 -285 -134 -350
-173 -27 -16 -57 -33 -65 -37 -20 -9 -200 -133 -210 -143 -3 -3 -34 -28 -70
-55 -84 -63 -302 -281 -365 -365 -27 -36 -52 -67 -55 -70 -34 -29 -208 -343
-229 -415 -5 -16 -19 -55 -31 -85 -55 -143 -98 -303 -135 -503 -14 -72 -16
-136 -12 -370 3 -173 9 -299 16 -327 13 -48 29 -112 41 -170 26 -121 88 -294
179 -505 31 -71 239 -485 269 -535 11 -19 30 -53 42 -75 57 -104 83 -151 90
-160 4 -5 24 -41 45 -80 21 -38 50 -92 65 -120 15 -27 51 -95 80 -149 28 -55
56 -106 60 -115 32 -59 115 -246 130 -291 5 -14 19 -54 33 -90 61 -166 75
-324 32 -382 -21 -28 -94 -68 -124 -68 -10 0 -32 16 -50 35 -17 19 -51 47 -74
62 -36 23 -53 27 -117 27 -105 0 -174 -40 -222 -128 -29 -55 -31 -176 -3 -221
59 -95 124 -135 220 -135 80 0 145 29 191 86 29 37 89 64 140 64 34 0 143 62
184 104 176 181 136 487 -134 1026 -77 154 -217 414 -287 532 -16 27 -29 51
-29 53 0 2 -17 32 -37 67 -103 176 -267 505 -333 668 -12 30 -26 64 -31 75
-36 82 -101 296 -123 400 -74 357 -50 680 80 1070 62 185 85 241 152 360 147
264 397 516 718 723 10 6 26 15 34 19 8 4 33 18 55 32 22 14 85 47 140 74 55
27 109 53 119 59 11 6 31 14 45 18 14 5 51 18 81 30 301 116 642 168 910 140
241 -26 277 -32 415 -67 90 -23 236 -72 267 -88 14 -8 31 -15 37 -15 46 0 372
-190 472 -274 20 -17 59 -50 86 -74 28 -23 79 -72 114 -108 35 -37 71 -74 80
-83 34 -35 167 -220 210 -291 168 -280 284 -595 334 -906 23 -142 23 -478 0
-606 -30 -165 -80 -352 -123 -458 -5 -14 -18 -45 -28 -70 -44 -113 -176 -369
-263 -513 -53 -87 -101 -166 -106 -175 -6 -9 -23 -36 -38 -60 -27 -41 -35 -56
-105 -185 -103 -188 -158 -311 -236 -524 -76 -210 -164 -610 -196 -899 -5 -45
-14 -94 -20 -110 -38 -100 -179 -154 -402 -154 -129 0 -135 1 -184 30 -29 16
-71 52 -96 79 -52 60 -89 131 -148 287 -9 24 -42 159 -63 264 -28 135 -46 320
-59 602 l-12 278 55 53 c55 55 89 124 89 182 0 56 -34 127 -87 183 l-53 55 0
161 c0 178 2 172 -68 225 -24 19 -41 38 -39 44 1 5 39 23 83 39 43 16 97 36
119 44 22 8 51 19 65 24 14 4 70 25 125 45 55 20 109 39 120 42 48 12 49 12
30 33 -9 10 -31 22 -48 26 -18 4 -45 12 -62 19 -31 13 -90 36 -157 61 -21 8
-55 20 -75 28 -21 8 -50 17 -65 20 -41 9 -38 42 5 55 17 5 57 19 87 31 30 11
87 32 125 45 156 54 213 80 201 93 -3 2 -43 18 -88 34 -127 44 -127 44 -218
78 -47 17 -121 44 -165 60 -43 15 -81 33 -83 38 -3 11 47 62 60 62 5 0 17 9
28 20 18 18 20 33 20 188 l0 169 45 41 c50 45 95 135 95 188 0 78 -67 185
-140 223 -56 29 -163 29 -220 0 -100 -52 -158 -175 -130 -276 13 -46 56 -123
69 -123 3 0 19 -11 34 -25 26 -25 27 -29 27 -133 0 -71 -4 -114 -12 -124 -7
-9 -80 -64 -163 -123 -82 -59 -161 -118 -174 -130 l-24 -23 39 -17 c38 -16
146 -55 271 -98 35 -12 63 -27 63 -34 0 -13 -27 -30 -69 -43 -14 -5 -51 -18
-81 -30 -80 -31 -220 -80 -258 -92 -63 -18 -37 -42 98 -88 14 -5 50 -18 80
-30 30 -12 69 -25 85 -30 49 -14 138 -49 148 -59 13 -13 0 -31 -23 -31 -11 0
-34 -6 -52 -14 -42 -18 -92 -37 -201 -77 -48 -17 -90 -35 -92 -39 -5 -8 15
-24 220 -174 66 -49 126 -96 133 -104 8 -10 12 -51 12 -118 l0 -102 -54 -55
c-54 -54 -86 -123 -86 -182 0 -61 32 -128 85 -179 l53 -51 5 -240 c6 -354 42
-661 103 -869 8 -26 14 -54 14 -62 0 -7 6 -28 14 -46 8 -18 22 -53 31 -78 28
-71 77 -172 99 -203 35 -48 17 -51 -175 -33 -533 49 -707 53 -855 22 -86 -18
-118 -31 -167 -70 -62 -47 -87 -95 -87 -165 0 -55 3 -63 33 -93 34 -34 76 -48
252 -82 159 -30 251 -47 328 -62 224 -41 351 -67 422 -86 22 -6 58 -14 80 -18
56 -10 331 -85 405 -111 215 -74 379 -153 359 -173 -2 -3 -24 0 -49 4 -25 5
-83 16 -130 25 -47 9 -116 22 -155 30 -145 27 -434 72 -515 79 -30 3 -86 10
-125 16 -38 6 -173 11 -300 11 -196 0 -242 -3 -309 -20 -202 -51 -296 -143
-296 -290 0 -81 22 -133 75 -178 47 -41 198 -113 235 -113 11 0 39 -6 62 -14
59 -18 238 -44 458 -64 l185 -17 3 -529 2 -528 -54 -53 c-44 -42 -58 -63 -72
-111 -31 -107 10 -215 103 -275 42 -26 55 -29 132 -29 71 0 91 4 126 25 49 28
85 73 108 135 34 91 10 176 -70 255 l-53 52 0 635 c0 497 -3 638 -12 645 -7 6
-116 13 -243 17 -343 10 -620 55 -732 119 -39 23 -40 30 -8 55 64 50 174 66
406 58 247 -9 442 -29 603 -62 38 -8 80 -14 95 -14 14 0 58 -6 96 -15 39 -8
144 -28 235 -45 91 -17 199 -37 240 -45 162 -32 226 -37 262 -21 47 21 63 37
76 74 23 68 -24 197 -101 275 -43 44 -111 99 -137 110 -8 4 -28 16 -45 27 -16
11 -40 24 -53 30 -13 5 -46 21 -75 34 -119 55 -252 101 -462 160 -96 27 -254
66 -310 76 -22 4 -83 18 -135 30 -52 12 -120 25 -150 30 -30 5 -80 14 -110 19
-30 6 -72 13 -92 16 -21 3 -38 10 -38 15 0 15 205 12 365 -4 413 -43 849 -55
1030 -28 228 35 382 123 450 259 24 50 43 141 65 313 11 94 51 307 77 415 89
371 203 643 422 1003 31 51 61 100 66 110 6 9 23 36 38 59 15 24 27 45 27 47
0 3 12 22 26 43 14 21 30 47 35 58 5 11 25 47 43 80 128 228 252 531 299 735
8 36 20 88 27 115 38 162 49 471 25 690 -21 199 -75 421 -141 590 -9 22 -23
58 -32 80 -56 146 -152 334 -227 444 -17 24 -39 59 -51 77 -46 76 -155 205
-269 320 -311 311 -705 524 -1145 617 -41 8 -102 21 -135 28 -93 19 -660 22
-750 4z"/>
</g>
</svg>
